<svg xmlns="http://www.w3.org/2000/svg" width="300" height="310" viewBox="0 0 300.000000 240.000000" preserveAspectRatio="xMidYMid " class="svg" style="width: 512px; height: 512px;">
    <g transform="translate(0.000000,240.000000) scale(0.100000,-0.100000)" fill="#010101" stroke="none">
        <path style="position: relative;" stroke-width="20" class="node" id="node1" d="M1507 2043 c-4 -3 -7 -255 -7 -560 l0 -553 -85 0 -85 0 0 95 0 94
-67 3 -68 3 -3 187 -2 187 -33 3 c-31 3 -32 5 -38 58 l-6 55 -1 -57 -2 -57
-37 -3 -38 -3 -3 -253 -2 -253 -73 3 -72 3 -3 413 -2 412 -313 -2 -312 -3 -3
-332 -2 -333 -65 0 -65 0 0 145 0 145 -60 0 -60 0 0 -720 0 -720 230 0 229 0
3 83 3 82 40 0 40 0 3 -82 c2 -46 7 -83 12 -83 5 0 10 37 12 82 l3 83 40 0 40
0 3 -82 3 -83 1169 0 1170 0 0 370 0 369 -77 3 -78 3 -3 443 -2 442 -290 0
-290 0 0 -400 0 -400 -75 0 -75 0 -2 608 -3 607 -296 3 c-162 1 -298 -1 -302
-5z m188 -183 l0 -75 -47 -3 -48 -3 0 74 c0 40 3 77 7 81 4 4 25 6 48 4 l40
-3 0 -75z m295 0 l0 -80 -45 0 -45 0 0 73 c0 41 3 77 7 80 3 4 24 7 45 7 l38
0 0 -80z m-1552 -217 c-3 -84 -10 -92 -64 -79 -23 6 -24 10 -24 81 l0 75 45 0
46 0 -3 -77z m360 3 c3 -77 -2 -86 -55 -86 l-33 0 0 81 0 80 43 -3 42 -3 3
-69z m882 -21 l0 -85 -40 0 -40 0 0 78 c0 43 3 82 7 85 3 4 21 7 40 7 l33 0 0
-85z m300 0 l0 -85 -40 0 -40 0 0 85 0 85 40 0 40 0 0 -85z m780 -191 l0 -74
-45 0 -45 0 0 78 0 77 45 -3 45 -4 0 -74z m-2320 -65 l0 -80 -42 3 -43 3 -3
78 -3 77 46 0 45 0 0 -81z m358 4 l-3 -78 -42 -3 -43 -3 0 80 0 81 45 0 46 0
-3 -77z m882 -3 l0 -80 -40 0 -40 0 0 80 0 80 40 0 40 0 0 -80z m300 0 l0 -80
-40 0 -40 0 0 80 0 80 40 0 40 0 0 -80z m780 -190 l0 -80 -45 0 -45 0 0 80 0
80 45 0 45 0 0 -80z m-2320 -50 l0 -80 -45 0 -45 0 0 73 c0 41 3 77 7 80 3 4
24 7 45 7 l38 0 0 -80z m355 0 l0 -75 -42 -3 -43 -3 0 81 0 81 43 -3 42 -3 0
-75z m483 -142 l3 -78 -46 0 -45 0 0 81 0 80 43 -3 42 -3 3 -77z m1482 -68 l0
-80 -45 0 -45 0 0 80 0 80 45 0 45 0 0 -80z m-2320 -36 l0 -85 -42 3 -43 3 -3
69 c-4 90 -1 96 48 96 l40 0 0 -86z m348 77 c9 -5 12 -29 10 -82 l-3 -74 -42
-3 -43 -3 0 85 0 86 33 0 c17 0 38 -4 45 -9z m910 -79 l3 -83 -43 3 -43 3 -3
69 c-4 91 -1 98 45 94 l38 -3 3 -83z m297 77 c4 -6 7 -43 7 -82 l0 -72 -43 0
-44 0 -3 69 c-2 38 -1 75 2 83 6 16 72 18 81 2z m-715 -229 l0 -80 -47 0 -48
0 3 80 4 80 44 0 44 0 0 -80z m-840 -90 l0 -80 -45 0 -45 0 0 73 c0 41 3 77 7
80 3 4 24 7 45 7 l38 0 0 -80z m355 0 l0 -75 -42 -3 -43 -3 0 81 0 81 43 -3
42 -3 0 -75z m915 -30 l0 -80 -45 0 -45 0 0 73 c0 41 3 77 7 80 3 4 24 7 45 7
l38 0 0 -80z m298 -2 l3 -78 -46 0 -45 0 0 73 c0 41 3 77 7 81 4 4 23 6 43 4
l35 -3 3 -77z m312 2 l0 -80 -45 0 -45 0 0 73 c0 41 3 77 7 80 3 4 24 7 45 7
l38 0 0 -80z m300 0 l0 -80 -45 0 -45 0 0 73 c0 41 3 77 7 80 3 4 24 7 45 7
l38 0 0 -80z m-1340 -140 l0 -80 -45 0 -45 0 0 80 0 80 45 0 45 0 0 -80z
m-840 -100 l0 -80 -45 0 -45 0 0 80 0 80 45 0 45 0 0 -80z m358 -12 l3 -78
-46 0 -45 0 0 81 0 80 43 -3 42 -3 3 -77z m912 -58 l0 -80 -45 0 -45 0 0 73
c0 41 3 77 7 80 3 4 24 7 45 7 l38 0 0 -80z m298 -2 l3 -78 -46 0 -45 0 0 73
c0 41 3 77 7 81 4 4 23 6 43 4 l35 -3 3 -77z m312 2 l0 -80 -45 0 -45 0 0 73
c0 41 3 77 7 80 3 4 24 7 45 7 l38 0 0 -80z m298 -2 l3 -78 -46 0 -45 0 0 73
c0 41 3 77 7 81 4 4 23 6 43 4 l35 -3 3 -77z m-1338 -83 l0 -85 -45 0 -45 0 0
85 0 85 45 0 45 0 0 -85z"></path>
    </g>
    <g transform="translate(0.000000,240.000000) scale(0.100000,-0.100000)" fill="#FFFFFF" stroke="none">

        <path style="position: relative;" class="node" id="node3" d="M1607 1934 c-4 -4 -7 -41 -7 -81 l0 -74 48 3 47 3 0 75 0 75 -40 3
c-23 2 -44 0 -48 -4z"></path>
        <path style="position: relative;" class="node" id="node4" d="M1907 1933 c-4 -3 -7 -39 -7 -80 l0 -73 45 0 45 0 0 80 0 80 -38 0
c-21 0 -42 -3 -45 -7z"></path>
        <path style="position: relative;" class="node" id="node5" d="M350 1645 c0 -71 1 -75 24 -81 54 -13 61 -5 64 79 l3 77 -46 0 -45 0
0 -75z"></path>
        <path style="position: relative;" class="node" id="node6" d="M710 1641 l0 -81 33 0 c53 0 58 9 55 86 l-3 69 -42 3 -43 3 0 -80z"></path>
        <path style="position: relative;" class="node" id="node7" d="M1607 1703 c-4 -3 -7 -42 -7 -85 l0 -78 40 0 40 0 0 85 0 85 -33 0
c-19 0 -37 -3 -40 -7z"></path>
        <path style="position: relative;" class="node" id="node8" d="M1900 1625 l0 -85 40 0 40 0 0 85 0 85 -40 0 -40 0 0 -85z"></path>
        <path style="position: relative;" class="node" id="node9" d="M2670 1438 l0 -78 45 0 45 0 0 74 0 74 -45 4 -45 3 0 -77z"></path>
        <path style="position: relative;" class="node" id="node10" d="M352 1373 l3 -78 43 -3 42 -3 0 80 0 81 -45 0 -46 0 3 -77z"></path>
        <path style="position: relative;" class="node" id="node11" d="M710 1369 l0 -80 43 3 42 3 3 78 3 77 -46 0 -45 0 0 -81z"></path>
        <path style="position: relative;" class="node" id="node12" d="M1600 1370 l0 -80 40 0 40 0 0 80 0 80 -40 0 -40 0 0 -80z"></path>
        <path style="position: relative;" class="node" id="node13" d="M1900 1370 l0 -80 40 0 40 0 0 80 0 80 -40 0 -40 0 0 -80z"></path>
        <path style="position: relative;" class="node" id="node14" d="M2670 1180 l0 -80 45 0 45 0 0 80 0 80 -45 0 -45 0 0 -80z"></path>
        <path style="position: relative;" class="node" id="node15" d="M357 1203 c-4 -3 -7 -39 -7 -80 l0 -73 45 0 45 0 0 80 0 80 -38 0
c-21 0 -42 -3 -45 -7z"></path>
        <path style="position: relative;" class="node" id="node16" d="M710 1130 l0 -81 43 3 42 3 0 75 0 75 -42 3 -43 3 0 -81z"></path>
        <path style="position: relative;" class="node" id="node17" d="M1190 991 l0 -81 45 0 46 0 -3 78 -3 77 -42 3 -43 3 0 -80z"></path>
        <path style="position: relative;" class="node" id="node18" d="M2670 920 l0 -80 45 0 45 0 0 80 0 80 -45 0 -45 0 0 -80z"></path>
        <path style="position: relative;" class="node" id="node19" d="M354 957 c-3 -8 -4 -45 -2 -83 l3 -69 43 -3 42 -3 0 85 0 86 -40 0
c-25 0 -43 -5 -46 -13z"></path>
        <path style="position: relative;" class="node" id="node20" d="M710 884 l0 -85 43 3 42 3 3 74 c3 82 -2 91 -55 91 l-33 0 0 -86z"></path>
        <path style="position: relative;" class="node" id="node21" d="M1614 957 c-3 -8 -4 -45 -2 -83 l3 -69 43 -3 43 -3 -3 83 -3 83 -38
3 c-25 2 -39 -1 -43 -11z"></path>
        <path style="position: relative;" class="node" id="node22" d="M1914 957 c-3 -8 -4 -45 -2 -83 l3 -69 44 0 43 0 0 72 c0 39 -3 76
-7 82 -9 16 -75 14 -81 -2z"></path>
        <path style="position: relative;" class="node" id="node23" d="M1188 730 l-3 -80 48 0 47 0 0 80 0 80 -44 0 -44 0 -4 -80z"></path>
        <path style="position: relative;" class="node" id="node24" d="M357 713 c-4 -3 -7 -39 -7 -80 l0 -73 45 0 45 0 0 80 0 80 -38 0
c-21 0 -42 -3 -45 -7z"></path>
        <path style="position: relative;" class="node" id="node25" d="M710 640 l0 -81 43 3 42 3 0 75 0 75 -42 3 -43 3 0 -81z"></path>
        <path style="position: relative;" class="node" id="node26" d="M1627 683 c-4 -3 -7 -39 -7 -80 l0 -73 45 0 45 0 0 80 0 80 -38 0
c-21 0 -42 -3 -45 -7z"></path>
        <path style="position: relative;" class="node" id="node27" d="M1927 684 c-4 -4 -7 -40 -7 -81 l0 -73 45 0 46 0 -3 78 -3 77 -35 3
c-20 2 -39 0 -43 -4z"></path>
        <path style="position: relative;" class="node" id="node28" d="M2237 683 c-4 -3 -7 -39 -7 -80 l0 -73 45 0 45 0 0 80 0 80 -38 0
c-21 0 -42 -3 -45 -7z"></path>
        <path style="position: relative;" class="node" id="node29" d="M2537 683 c-4 -3 -7 -39 -7 -80 l0 -73 45 0 45 0 0 80 0 80 -38 0
c-21 0 -42 -3 -45 -7z"></path>
        <path style="position: relative;" class="node" id="node30" d="M1190 470 l0 -80 45 0 45 0 0 80 0 80 -45 0 -45 0 0 -80z"></path>
        <path style="position: relative;" class="node" id="node31" d="M350 370 l0 -80 45 0 45 0 0 80 0 80 -45 0 -45 0 0 -80z"></path>
        <path style="position: relative;" class="node" id="node32" d="M710 361 l0 -81 45 0 46 0 -3 78 -3 77 -42 3 -43 3 0 -80z"></path>
        <path style="position: relative;" class="node" id="node33" d="M1627 373 c-4 -3 -7 -39 -7 -80 l0 -73 45 0 45 0 0 80 0 80 -38 0
c-21 0 -42 -3 -45 -7z"></path>
        <path style="position: relative;" class="node" id="node34" d="M1927 374 c-4 -4 -7 -40 -7 -81 l0 -73 45 0 46 0 -3 78 -3 77 -35 3
c-20 2 -39 0 -43 -4z"></path>
        <path style="position: relative;" class="node" id="node35" d="M2237 373 c-4 -3 -7 -39 -7 -80 l0 -73 45 0 45 0 0 80 0 80 -38 0
c-21 0 -42 -3 -45 -7z"></path>
        <path style="position: relative;" class="node" id="node36" d="M2537 374 c-4 -4 -7 -40 -7 -81 l0 -73 45 0 46 0 -3 78 -3 77 -35 3
c-20 2 -39 0 -43 -4z"></path>
        <path style="position: relative;" class="node" id="node37" d="M1190 215 l0 -85 45 0 45 0 0 85 0 85 -45 0 -45 0 0 -85z"></path>
        <path style="position: relative;" class="node" id="node38" d="M467 164 c-4 -4 -7 -43 -7 -86 l0 -78 45 0 46 0 -3 83 -3 82 -35 3
c-20 2 -39 0 -43 -4z"></path>
        <path style="position: relative;" stroke-width="20" class="node" id="node39" d="M577 164 c-4 -4 -7 -43 -7 -86 l0 -78 45 0 46 0 -3 83 -3 82 -35 3
c-20 2 -39 0 -43 -4z"></path>
    </g>
</svg>