<svg width="48" height="36" viewBox="0 0 48 36" fill="none" xmlns="http://www.w3.org/2000/svg">
<path d="M47.4238 0.719193C46.1171 6.13253 44.7638 12.0125 43.3638 18.3592C42.0571 24.6125 41.0771 30.1659 40.4238 35.0192H27.1238L26.1438 33.4792C27.3571 28.6259 29.0838 23.2125 31.3238 17.2392C33.6571 11.2659 35.9904 5.75919 38.3238 0.719193H47.4238ZM21.5238 0.719193C20.2171 6.13253 18.9104 12.0125 17.6038 18.3592C16.2971 24.6125 15.2704 30.1659 14.5238 35.0192H1.36375L0.52375 33.4792C1.83042 28.6259 3.55708 23.2125 5.70375 17.2392C7.94375 11.2659 10.2304 5.75919 12.5638 0.719193H21.5238Z" fill="black"/>
</svg>
